<?xml version="1.0" encoding="utf-8"?>
<!-- Generator: Adobe Illustrator 24.1.3, SVG Export Plug-In . SVG Version: 6.00 Build 0)  -->
<svg version="1.1" id="Capa_1" xmlns="http://www.w3.org/2000/svg" xmlns:xlink="http://www.w3.org/1999/xlink" x="0px" y="0px"
	 viewBox="0 0 512 512" style="enable-background:new 0 0 512 512;" xml:space="preserve">
<style type="text/css">
	.st0{fill:#FEE97D;}
	.st1{fill:#FEDF30;}
</style>
<g>
	<g>
		<path class="st0" d="M206,306.1c-76.7-77-97.4-188.9-62.2-284.7c3.4-9.3-7.1-17.6-15.4-12.1c-15.4,10.3-29.9,22.3-43.4,36.1
			C-18.2,151.4-16.8,321.8,88,426.2c105.2,104.7,275,104.5,379.8-0.8c12.9-12.9,24.2-26.9,33.9-41.5c5.5-8.3-2.8-18.7-12.1-15.3
			C394.1,403.9,282.7,383,206,306.1L206,306.1z"/>
		<g>
			<path class="st1" d="M489.6,368.5c-19.4,7.2-39.6,12.1-59.9,14.6c-105.5,90.7-264.2,86.2-364.4-13.6
				c-19.2-19.1-34.9-40.4-47.1-63.1c12.1,43.9,35.3,85.4,69.8,119.7c105.2,104.7,275,104.5,379.8-0.8c12.9-12.9,24.2-26.9,33.9-41.5
				C507.2,375.6,498.9,365.1,489.6,368.5z"/>
		</g>
	</g>
	<g>
		<path d="M30.6,126.6c3.8,1.7,8.2,0.1,10-3.6c12.4-26.7,29.2-51,49.9-72.3c12.8-13.2,27-25,42.2-35.1c1.4-1,2.7-0.3,3.3,0.1
			c0.6,0.5,1.5,1.5,0.9,3.1c-18,49.1-21.9,102.2-11.2,153.6c11,52.7,37,100.8,75.1,139c34.3,34.4,77,59.2,123.5,71.8
			c0.7,0.2,1.3,0.3,2,0.3c3.3,0,6.3-2.2,7.2-5.5c1.1-4-1.3-8.1-5.3-9.2c-44-11.9-84.4-35.3-116.8-67.9c-36-36.2-60.6-81.7-71-131.5
			c-10.2-48.6-6.5-98.8,10.6-145.3c2.7-7.3,0.5-15.2-5.7-20.1C139-1,130.8-1.3,124.3,3.1c-16,10.7-31,23.2-44.6,37.1
			c-21.9,22.5-39.6,48.2-52.8,76.4C25.2,120.4,26.8,124.8,30.6,126.6L30.6,126.6z"/>
		<path d="M507.1,367.1c-4.9-6.1-12.8-8.4-20.1-5.6c-40.9,15.1-85.5,19.8-128.8,13.4c-4.1-0.6-7.9,2.2-8.5,6.3s2.2,7.9,6.3,8.5
			c45.8,6.7,92.9,1.8,136.2-14.2c1.6-0.6,2.7,0.3,3.1,0.9c0.5,0.6,1.1,1.8,0.1,3.2c-9.6,14.4-20.7,28-33,40.4
			C413.2,469.5,347.7,496.9,278,497c-0.2,0-0.3,0-0.5,0c-69.5,0-134.9-27-184.2-76.2c-35.2-35-59.6-79.1-70.6-127.5
			c-10.7-47.1-8.4-96.2,6.7-142c1.3-3.9-0.8-8.2-4.8-9.5c-3.9-1.3-8.2,0.8-9.5,4.8c-16,48.4-18.4,100.2-7,150
			c11.7,51.2,37.5,97.8,74.7,134.8C134.9,483.4,204,512,277.5,512h0.5c73.7-0.1,143-29,195.1-81.3c13-13.1,24.7-27.4,34.9-42.7
			C512.3,381.4,512,373.3,507.1,367.1L507.1,367.1z"/>
	</g>
</g>
</svg>
